<svg xmlns="http://www.w3.org/2000/svg" width="41" height="41" fill="none" style=""><rect id="backgroundrect" width="100%" height="100%" x="0" y="0" fill="none" stroke="none"/>

<g class="currentLayer" style=""><title>Layer 1</title><path d="M4.175,33.918367348611355 C3.48333,33.918367348611355 2.92708,33.69566734861135 2.50625,33.250367348611356 C2.08542,32.80506734861135 1.875,32.24676734861136 1.875,31.575367348611355 C1.875,30.904067348611356 2.08542,30.360067348611356 2.50625,29.943367348611353 C2.92708,29.526667348611355 3.48333,29.318367348611353 4.175,29.318367348611353 H37.725 C38.3842,29.318367348611353 38.9323,29.529567348611355 39.3694,29.952067348611354 C39.8065,30.374667348611354 40.025,30.921567348611354 40.025,31.592967348611356 C40.025,32.264267348611355 39.8065,32.819667348611354 39.3694,33.259167348611356 C38.9323,33.69866734861135 38.3842,33.918367348611355 37.725,33.918367348611355 H4.175 zM4.175,22.468367348611356 C3.48333,22.468367348611356 2.92708,22.245667348611356 2.50625,21.800367348611356 C2.08542,21.355067348611353 1.875,20.813367348611354 1.875,20.175367348611356 C1.875,19.504067348611354 2.08542,18.960067348611354 2.50625,18.543367348611355 C2.92708,18.126667348611356 3.48333,17.918367348611355 4.175,17.918367348611355 H37.725 C38.3842,17.918367348611355 38.9323,18.129567348611356 39.3694,18.552067348611356 C39.8065,18.974667348611355 40.025,19.521567348611356 40.025,20.192967348611354 C40.025,20.830967348611356 39.8065,21.369667348611355 39.3694,21.809167348611354 C38.9323,22.248667348611356 38.3842,22.468367348611356 37.725,22.468367348611356 H4.175 zM4.175,11.018367348611354 C3.48333,11.018367348611354 2.92708,10.804067348611355 2.50625,10.375367348611356 C2.08542,9.946767348611354 1.875,9.380067348611355 1.875,8.675367348611355 C1.875,8.037367348611355 2.08542,7.501697348611355 2.50625,7.068367348611355 C2.92708,6.635037348611355 3.48333,6.418367348611355 4.175,6.418367348611355 H37.725 C38.3842,6.418367348611355 38.9323,6.6379473486113545 39.3694,7.077117348611355 C39.8065,7.516317348611355 40.025,8.054917348611355 40.025,8.692917348611354 C40.025,9.397617348611355 39.8065,9.961367348611354 39.3694,10.384167348611355 C38.9323,10.806967348611355 38.3842,11.018367348611354 37.725,11.018367348611354 H4.175 z" fill="#ffffff" id="svg_1" class="selected" fill-opacity="1"/></g></svg>